<svg xmlns="http://www.w3.org/2000/svg" viewBox="0 0 4196.68 466.07"><defs><style>.cls-1{fill:#fff;}</style></defs><title>SmartGIS Web3D</title><g id="图层_2" data-name="图层 2"><g id="图层_7" data-name="图层 7"><polygon class="cls-1" points="200 77.18 316.1 144.9 382.25 106.31 200 0 17.75 106.31 83.9 144.9 200 77.18"/><polygon class="cls-1" points="207.28 246.15 207.28 312.82 333.33 239.82 333.33 311.11 200 388.89 66.67 311.11 66.67 173.44 0 134.55 0 349.4 200 466.07 400 349.4 400 201.22 400 134.55 400 134.55 207.28 246.15"/><path class="cls-1" d="M621.09,314.09q36.52,30.27,83,30.27,26.37,0,39.65-9.08T757,311.94q0-12.3-10.55-23.24T690.82,259q-70.91-30.07-70.9-87.5,0-42.18,32.13-65.53t85.06-23.34q44.34,0,74.41,11.53v60.54Q781.06,134,740.23,134q-23.82,0-38.08,8.69T687.89,166q0,11.72,9.77,21.58t48.24,26.66q45.12,19.35,62,40.82t16.89,51.18q0,43.55-30.85,66.4t-87.7,22.85q-52,0-85.16-16.79Z"/><path class="cls-1" d="M1208.2,390.26h-62.89V267q0-49.6-36.13-49.61-16.8,0-27.93,15t-11.13,36.72V390.26h-62.89V265.46q0-48-35.75-48-17.78,0-28.41,14.35t-10.65,38V390.26H869.34v-216h63.08V208h.78a79.32,79.32,0,0,1,30.08-28.8A81,81,0,0,1,1002.73,169q45.51,0,62.31,40.82Q1090,169,1137.7,169q70.5,0,70.5,87.11Z"/><path class="cls-1" d="M1267.38,187.33q14.65-8.21,39.16-13.28t41.9-5.08q90.61,0,90.62,90.82V390.26h-60V358.82h-.78q-22.08,36.72-64.65,36.71-30.66,0-49.12-17.48t-18.46-47.55q0-62.12,74-72.27l59.37-8q0-37.69-39.26-37.69-38.67,0-72.85,23.43Zm71.29,105.08q-34.18,4.5-34.18,30.86,0,12.11,8.3,19.53t22.37,7.42q19.33,0,31.83-13.67t12.5-34V287.14Z"/><path class="cls-1" d="M1630.86,231.47q-11.53-6.63-27.93-6.64-21.5,0-34.08,16.41t-12.6,45.11V390.26h-63.09v-216h63.09v40.62h.78q15.63-44.34,56.84-44.34,11.13,0,17,2.54Z"/><path class="cls-1" d="M1802.15,387.72q-14.26,7.81-43.17,7.81-68.74,0-68.75-72.26V221.32h-35.54V174.25h35.54V126.78l62.7-18v65.43h49.22v47.07h-49.22v91q0,34.57,27.34,34.57,10.55,0,21.88-6.25Z"/><path class="cls-1" d="M2092.77,370q-44.34,25.59-109,25.58-72.27,0-114.06-40.62t-41.8-111.13q0-71.49,46-116.31t121.19-44.83q48.44,0,84.57,13.68v61.13q-35.16-20.5-85.94-20.51-43.76,0-70.9,28.52t-27.15,75.19q0,47.46,24.51,74t66.9,26.56q25.2,0,41.21-7.81V271.32h-61.13V219.56h125.58Z"/><path class="cls-1" d="M2217.19,87.72V390.26h-64.46V87.72Z"/><path class="cls-1" d="M2273.24,314.09q36.53,30.27,83,30.27,26.37,0,39.65-9.08t13.28-23.34q0-12.3-10.55-23.24T2343,259q-70.91-30.07-70.9-87.5,0-42.18,32.13-65.53t85.06-23.34q44.32,0,74.41,11.53v60.54q-30.47-20.7-71.29-20.7-23.82,0-38.08,8.69T2340,166q0,11.72,9.76,21.58t48.25,26.66q45.12,19.35,62,40.82T2477,306.28q0,43.55-30.86,66.4t-87.69,22.85q-52,0-85.16-16.79Z"/><path class="cls-1" d="M3157.62,87.72,3077,390.26h-71.68L2953.71,193a164.23,164.23,0,0,1-4.88-33.4h-.78q-2,20.31-5.47,33.4l-52.74,197.26h-74.41L2734.77,87.72h70.7l44.92,205.08q2.93,13.47,4.1,34h1.37a178.1,178.1,0,0,1,6-35l56.25-204.1h68.56l51.17,206.64q3.12,12.31,4.88,32h1a187.37,187.37,0,0,1,4.49-33.2l44-205.47Z"/><path class="cls-1" d="M3370.7,300H3228.52q3.32,50.19,60.54,50.19,35.74,0,63.09-17.58v46.29q-29.49,16.6-77.35,16.6-51.56,0-80.17-29.1T3166,285.38q0-51.75,30.46-84.08T3273.05,169q45.88,0,71.77,27.83t25.88,76.47Zm-58.79-39.46q0-48.43-39.25-48.43-16.22,0-28.71,13.28t-15.63,35.15Z"/><path class="cls-1" d="M3474.8,364.28v26h-63.08V70.53h63.08V207.25h.79q24.79-38.28,70.7-38.28,40.82,0,64,28.52t23.15,78.71q0,53.71-26.56,86.52t-70.51,32.81q-40.24,0-60.74-31.25Zm-1-67.38q0,21.28,12.69,35.74t32.23,14.46q23.63,0,36.82-18.36t13.18-52q0-27.91-12-43.65t-34.28-15.72q-21.09,0-34.86,15.82t-13.77,40.62Z"/><path class="cls-1" d="M3680.27,324.44q30.29,22.67,70.71,22.66,25.58,0,40.62-11.33t15-32.23q0-21.48-17.87-32.81t-50.1-11.33h-27V210.77h24.8q60.95,0,60.94-41,0-38.67-46.68-38.67-30.47,0-59.18,19.92V98.85q31.24-16.2,73.63-16.21,43,0,69.73,19.83t26.76,55q0,59.37-60.16,74.61v1q31.65,3.53,50.59,23.15t18.94,47.75q0,43.17-31.54,67.39t-84.08,24.21q-46.68,0-75.2-15.43Z"/><path class="cls-1" d="M3931.06,390.26V87.72h104.49q161.13,0,161.13,147.46,0,70.13-45.12,112.6t-116.4,42.48Zm64.45-249.8V337.53h35.15q45.9,0,72.07-27.35t26.18-74q0-45.12-27.35-70.41t-71.09-25.29Z"/></g></g></svg>